<?xml version="1.0" encoding="UTF-8" standalone="no"?>
<svg
   xmlns:dc="http://purl.org/dc/elements/1.1/"
   xmlns:cc="http://creativecommons.org/ns#"
   xmlns:rdf="http://www.w3.org/1999/02/22-rdf-syntax-ns#"
   xmlns:svg="http://www.w3.org/2000/svg"
   xmlns="http://www.w3.org/2000/svg"
   xmlns:xlink="http://www.w3.org/1999/xlink"
   xmlns:sodipodi="http://sodipodi.sourceforge.net/DTD/sodipodi-0.dtd"
   xmlns:inkscape="http://www.inkscape.org/namespaces/inkscape"
   width="308"
   height="474.449"
   version="1.1"
   id="svg5047"
   sodipodi:docname="ZamnaSVG.svg"
   inkscape:version="0.92.3 (2405546, 2018-03-11)">
  <metadata
     id="metadata5051">
    <rdf:RDF>
      <cc:Work
         rdf:about="">
        <dc:format>image/svg+xml</dc:format>
        <dc:type
           rdf:resource="http://purl.org/dc/dcmitype/StillImage" />
      </cc:Work>
    </rdf:RDF>
  </metadata>
  <sodipodi:namedview
     pagecolor="#ffffff"
     bordercolor="#666666"
     borderopacity="1"
     objecttolerance="10"
     gridtolerance="10"
     guidetolerance="10"
     inkscape:pageopacity="0"
     inkscape:pageshadow="2"
     inkscape:window-width="1821"
     inkscape:window-height="1040"
     id="namedview5049"
     showgrid="false"
     inkscape:zoom="0.11313708"
     inkscape:cx="3625.7459"
     inkscape:cy="699.67973"
     inkscape:window-x="0"
     inkscape:window-y="0"
     inkscape:window-maximized="0"
     inkscape:current-layer="svg5047" />
  <defs
     id="defs9">
    <path
       id="a"
       d="M3044.509 0h219.646v434.353h-219.646z" />
  </defs>
  <clipPath
     id="b">
    <use
       xlink:href="#a"
       overflow="visible"
       id="use11" />
  </clipPath>
  <defs
     id="defs31">
    <path
       id="e"
       d="M1590.867 367.416h220.166v48.964h-220.166z" />
  </defs>
  <clipPath
     id="f">
    <use
       xlink:href="#e"
       overflow="visible"
       id="use33" />
  </clipPath>
  <defs
     id="defs173">
    <path
       id="i"
       d="M1363.644 367.416h220.166v48.964h-220.166z" />
  </defs>
  <clipPath
     id="j">
    <use
       xlink:href="#i"
       overflow="visible"
       id="use175" />
  </clipPath>
  <defs
     id="defs315">
    <path
       id="m"
       d="M497.605 609.985h220.166v48.964H497.605z" />
  </defs>
  <clipPath
     id="n">
    <use
       xlink:href="#m"
       overflow="visible"
       id="use317" />
  </clipPath>
  <path
     fill="#FFF"
     d="M233.081 70.111V40.326h-21.843L67.881 236.502v28.192H88.93L233.081 70.111zM216.25 51.365c4.962 0 8.971 4.019 8.971 8.977 0 4.954-4.009 8.975-8.971 8.975-4.957 0-8.983-4.021-8.983-8.975 0-4.958 4.026-8.977 8.983-8.977zM76.436 244.681c0-4.959 4.016-8.973 8.97-8.973s8.97 4.014 8.97 8.973a8.97 8.97 0 11-17.94 0z"
     id="path490" />
  <path
     fill="#34B8D5"
     d="M197.229 54.066l10.038-13.74h-12.371c1.542 2.707 2.478 5.633 2.679 8.728a19.106 19.106 0 01-.346 5.012zM117.665 54.227a14.8 14.8 0 00.953 4.318c3.546-4.862 9.053-9.081 15.787-12.098l-.115-.119 1.665-.578.285-.094.217-.065.473-.198c.422-.172.855-.343 1.289-.504a59.16 59.16 0 012.871-.914 60.733 60.733 0 018.149-1.809 68.41 68.41 0 013.893-.458c.194-.017.382-.036.57-.058.282-.03.577-.063.881-.083a62.863 62.863 0 019.104.087 56.51 56.51 0 015.275.684c9.71 1.687 18.127 5.81 23.481 11.431.351-1.49.48-2.965.387-4.409-.209-3.27-1.463-6.317-3.549-9.033h-65.763c-4.134 4.289-6.17 9.091-5.853 13.9z"
     id="path492" />
  <path
     fill="#34B8D5"
     d="M105.742 43.939c1.892 3.044 2.961 6.243 3.17 9.511.347 5.312-1.541 10.661-5.459 15.469l-.217.282c-.029.038-.065.077-.094.115h17.346a26.343 26.343 0 01-2.643-2.806 24.64 24.64 0 01-1.755-2.468c-1.896-3.042-2.961-6.238-3.174-9.506-.317-4.858 1.238-9.739 4.491-14.211h-14.414c.35.377.682.76.992 1.148a25.519 25.519 0 011.757 2.466zM142.407 61.08c-.249-3.889-1.788-7.567-4.558-10.939-7.705 3.098-13.562 7.689-16.646 13.032 1.763 2.313 4.135 4.38 6.98 6.144h12.771c1.136-2.701 1.638-5.484 1.453-8.237z"
     id="path494" />
  <path
     fill="#34B8D5"
     d="M98.191 67.789c4.229-4.328 6.29-9.177 5.977-14.034a14.815 14.815 0 00-.957-4.319c-3.55 4.862-9.042 9.082-15.783 12.1l.107.116-1.653.58-.296.096-.206.063-.48.199c-.426.173-.859.347-1.296.507-.965.341-1.939.636-2.863.914a60.381 60.381 0 01-8.15 1.804c-.365.056-.751.106-1.13.153v3.349h25.114c.198-.179.414-.357.605-.54a33.98 33.98 0 001.011-.988zM156.331 60.179c-.308-4.795-2.614-9.356-6.688-13.225-2.246.336-4.091.7-5.756 1.141-.423.11-.849.233-1.264.357 2.766 3.82 4.312 7.957 4.589 12.315.191 2.862-.198 5.741-1.111 8.549h8.398c1.409-2.961 2.034-6.039 1.832-9.137zM170.266 59.278c-.307-4.603-2.463-9.024-6.254-12.812a59.057 59.057 0 00-7.811-.197c-.195.009-.391.013-.586.02h-.006c3.318 4.1 5.225 8.756 5.535 13.581.205 3.182-.285 6.361-1.438 9.446h8.255c1.73-3.244 2.525-6.638 2.305-10.038zM190.473 58.684c-3.824-4.994-10.393-8.856-18.6-10.907-.239-.058-.478-.11-.716-.166 2.34 3.548 3.651 7.359 3.918 11.353.224 3.474-.397 6.977-1.802 10.353h5.654c5.157-2.882 9.187-6.562 11.546-10.633zM77.941 59.888c.426-.114.849-.234 1.268-.361-2.773-3.817-4.318-7.953-4.594-12.313a22.475 22.475 0 01.636-6.888H71.46v19.986c.231.242.473.484.726.717 2.25-.336 4.097-.702 5.755-1.141zM79.414 46.9c.261 3.895 1.795 7.572 4.568 10.945 7.702-3.097 13.562-7.691 16.639-13.032-1.234-1.623-2.77-3.123-4.564-4.486H80.264c-.694 2.171-.983 4.383-.85 6.573zM240.256 243.591c-2.253.334-4.095.702-5.763 1.143-.419.11-.845.233-1.257.357 2.762 3.817 4.312 7.955 4.59 12.315a22.325 22.325 0 01-.74 7.289h4.733v-19.481a26.709 26.709 0 00-1.563-1.623zM214.246 236.831c-4.221 4.326-6.293 9.175-5.979 14.034.102 1.439.412 2.889.957 4.319 3.55-4.862 9.05-9.085 15.79-12.099l-.115-.123 1.665-.578c.094-.033.191-.062.296-.094l.202-.063.483-.199c.42-.169.854-.348 1.286-.503.968-.345 1.95-.638 2.867-.914a60.744 60.744 0 018.146-1.811 63.537 63.537 0 011.976-.258v-2.834h-26.403a3.03 3.03 0 00-.154.135 24.57 24.57 0 00-1.017.988zM233.013 257.718c-.253-3.893-1.776-7.568-4.558-10.941-7.701 3.094-13.559 7.688-16.643 13.032 1.361 1.784 3.084 3.423 5.103 4.886h15.115c.791-2.302 1.134-4.65.983-6.977zM118.77 245.931c3.82 4.999 10.389 8.859 18.604 10.908.235.06.477.112.701.17-2.336-3.55-3.646-7.357-3.91-11.354-.214-3.336.357-6.695 1.646-9.946h-6.207c-4.819 2.815-8.595 6.343-10.834 10.222z"
     id="path496" />
  <path
     fill="#34B8D5"
     d="M206.699 260.681c-1.895-3.042-2.964-6.245-3.174-9.509-.34-5.312 1.539-10.658 5.449-15.464H189.18a25.996 25.996 0 012.217 2.401 25.176 25.176 0 011.759 2.468c1.888 3.041 2.961 6.24 3.171 9.506.328 5.003-1.333 10.031-4.781 14.612h18.278a23.097 23.097 0 01-1.365-1.549 22.78 22.78 0 01-1.76-2.465zM138.977 245.342c.3 4.606 2.455 9.022 6.247 12.808 2.606.24 5.222.309 7.813.199.203-.009.391-.013.586-.017-3.314-4.105-5.215-8.758-5.532-13.581-.188-3.044.245-6.086 1.286-9.043h-8.306c-1.589 3.116-2.311 6.37-2.094 9.634zM152.904 244.441c.314 4.792 2.617 9.356 6.691 13.225 2.249-.336 4.098-.701 5.763-1.139a49.07 49.07 0 001.253-.359c-2.763-3.819-4.309-7.957-4.59-12.319-.177-2.724.166-5.465.997-8.141h-8.464c-1.279 2.834-1.841 5.774-1.65 8.733zM166.832 243.54c.248 3.891 1.783 7.567 4.563 10.938 7.698-3.093 13.563-7.686 16.644-13.028-1.633-2.141-3.785-4.067-6.346-5.741h-13.572c-1.016 2.57-1.463 5.213-1.289 7.831zM113.581 245.729c.415-.908.892-1.808 1.427-2.672 1.639-2.658 3.824-5.125 6.449-7.348h-6.681l-21.481 28.987h21.287c-1.684-2.815-2.701-5.88-2.918-9.13-.213-3.262.437-6.573 1.917-9.837z"
     id="path498" />
  <path
     fill="#34B8D5"
     d="M185.598 264.423c4.229-4.324 6.293-9.175 5.982-14.033a14.778 14.778 0 00-.96-4.315c-3.542 4.862-9.052 9.082-15.786 12.097l.111.121-1.658.58-.292.092-.209.063-.478.197c-.43.175-.855.35-1.296.507-.964.341-1.946.637-2.866.912a59.608 59.608 0 01-8.146 1.807c-1.217.183-2.527.34-3.893.462a8.773 8.773 0 00-.563.058c-.296.033-.589.06-.889.084a62.1 62.1 0 01-9.1-.09 55.34 55.34 0 01-5.278-.682c-9.711-1.688-18.127-5.81-23.475-11.432-.354 1.491-.492 2.964-.395 4.411.225 3.432 1.596 6.619 3.871 9.434h65.04c.095-.093.19-.182.28-.273z"
     id="path500" />
  <g
     fill="#FFF"
     id="g504">
    <path
       d="M67.705 346.777v11.879H33.92l17.456-49.215h-16.81v-11.877h33.781l-17.622 49.213h16.98zM117.644 358.656h-12.201l-3.969-16.08H90.807l-3.874 16.08H74.811l15.6-61.092h11.475l15.758 61.092zm-24.652-25.615h6.387l-3.152-16.971-3.235 16.971zM168.305 358.656h-11.873v-44.607a1028.738 1028.738 0 00-4.654 6.021 749.841 749.841 0 01-4.395 5.697l-8.969-11.637v44.525h-11.881v-61.092l11.071-.08 9.854 12.766 9.703-12.686h11.143v61.093zM218.41 358.656h-11.884v-27.639l-13.411-16.482v44.121h-11.873v-61.092l11.147-.08 14.137 18.342v-18.262h11.884v61.092zM270.537 358.656h-12.201l-3.965-16.08h-10.666l-3.879 16.08h-12.121l15.599-61.092h11.476l15.757 61.092zm-24.648-25.615h6.385l-3.156-16.971-3.229 16.971zM86.575 371.546h13.212c1.73 0 3.305.275 4.742.826 1.43.545 2.656 1.324 3.693 2.338 1.036 1.012 1.838 2.232 2.401 3.662.57 1.438.853 3.035.853 4.805v24.521c0 1.646-.217 3.182-.658 4.615-.447 1.43-1.141 2.664-2.086 3.697-.954 1.027-2.168 1.842-3.633 2.432-1.48.592-3.25.885-5.312.885H86.575v-47.781zm19.976 10.307c-.043-1.9-.708-3.432-1.993-4.619-1.286-1.174-2.874-1.77-4.771-1.77h-8.275v39.945h8.275c.885 0 1.73-.096 2.524-.283a5.663 5.663 0 002.155-1.014c.633-.484 1.131-1.137 1.514-1.959.383-.82.57-1.863.57-3.127v-27.173zM144.783 393.732v4.867h-15.107v15.861h18.516v4.867H124.75v-47.781h23.441v4.869h-18.516v17.316h15.108zM173.476 419.328h-5.687a3027.649 3027.649 0 00-6.164-23.924 3465.993 3465.993 0 01-6.16-23.857h5.69l9.481 39.881 9.533-39.881h5.688l-12.381 47.781zM205.137 416.041c1.437 0 2.621-.219 3.574-.662.946-.441 1.705-1.01 2.271-1.707a6.123 6.123 0 001.202-2.461c.231-.951.364-1.932.411-2.941.044-1.18-.05-2.221-.281-3.127a9.515 9.515 0 00-.945-2.404 9.64 9.64 0 00-1.395-1.863 69.055 69.055 0 00-1.553-1.578l-9.034-9.166c-.636-.631-1.268-1.307-1.899-2.023s-1.191-1.465-1.668-2.244a11.72 11.72 0 01-1.199-2.527 8.382 8.382 0 01-.484-2.877c0-3.16 1.012-5.518 3.037-7.074 2.025-1.562 4.68-2.34 7.963-2.34 3.589 0 6.214.791 7.9 2.367 1.686 1.58 2.824 3.785 3.416 6.605h-4.742a20.62 20.62 0 00-.603-1.893 4.828 4.828 0 00-1.075-1.709c-.477-.502-1.102-.914-1.856-1.232-.759-.314-1.772-.473-3.04-.473-1.258 0-2.297.158-3.099.473-.794.318-1.431.748-1.896 1.295a4.533 4.533 0 00-.943 1.865 8.935 8.935 0 00-.256 2.115c0 .674.148 1.371.444 2.088.292.715.913 1.654 1.863 2.809.946 1.162 2.325 2.67 4.146 4.521 1.798 1.855 4.231 4.279 7.258 7.268 1.018.971 1.842 1.865 2.473 2.686a12.096 12.096 0 011.484 2.469c.348.82.6 1.684.727 2.59.129.904.188 1.949.188 3.129a15.33 15.33 0 01-.791 4.551 10.127 10.127 0 01-2.21 3.729c-.997 1.053-2.261 1.887-3.823 2.494-1.557.611-3.413.918-5.564.918-1.77 0-3.359-.232-4.768-.693-1.411-.467-2.609-1.129-3.582-1.996a8.949 8.949 0 01-2.234-3.029c-.531-1.16-.766-2.436-.727-3.828h4.99c0 .76.102 1.496.286 2.215.19.717.526 1.348 1.007 1.893.492.551 1.142.984 1.965 1.297.816.313 1.845.47 3.062.47z"
       id="path502" />
  </g>
  <defs
     id="defs559">
    <path
       id="q"
       d="M1829.867 31.28h219.646v154.792h-219.646z" />
  </defs>
  <clipPath
     id="r">
    <use
       xlink:href="#q"
       overflow="visible"
       id="use561" />
  </clipPath>
  <linearGradient
     id="s"
     gradientUnits="userSpaceOnUse"
     x1="654.21"
     y1="886.918"
     x2="654.21"
     y2="620.597"
     gradientTransform="rotate(180 1296.95 526.847)">
    <stop
       offset="0"
       stop-color="#fff"
       id="stop580" />
    <stop
       offset="1"
       stop-color="#fff"
       stop-opacity="0"
       id="stop582" />
  </linearGradient>
  <linearGradient
     id="aa"
     gradientUnits="userSpaceOnUse"
     x1="503.42"
     y1="998.824"
     x2="503.42"
     y2="852.54"
     gradientTransform="rotate(180 1237.367 607.203)">
    <stop
       offset="0"
       stop-color="#fff"
       id="stop3186" />
    <stop
       offset="1"
       stop-color="#fff"
       stop-opacity="0"
       id="stop3188" />
  </linearGradient>
</svg>
